<svg xmlns="http://www.w3.org/2000/svg" viewBox="0 0 800 512" width="800" height="512">
  <rect width="800" height="512" fill="#f8f4ee" rx="48"/>

  <!-- Book icon left, scaled down -->
  <g transform="translate(40, 80) scale(0.7)">
    <rect x="56" y="112" width="186" height="252" rx="8"
          fill="#fffefb" stroke="#d1c4ca" stroke-width="4"
          transform="rotate(-4 149 238)"/>
    <rect x="270" y="112" width="186" height="252" rx="8"
          fill="#fffefb" stroke="#d1c4ca" stroke-width="4"
          transform="rotate(4 363 238)"/>
    <rect x="247" y="108" width="18" height="260" rx="4" fill="#e8e0e2" opacity="0.7"/>
    <path d="M 256 96 C 256 80 240 72 230 82 C 220 92 220 108 256 128 C 292 108 292 92 282 82 C 272 72 256 80 256 96 Z"
          fill="#6e455e"/>
  </g>

  <!-- Wordmark: lovebook in italic serif -->
  <text x="520" y="300" font-family="'Georgia', 'Times New Roman', serif"
        font-size="96" font-weight="400" font-style="italic"
        text-anchor="middle" fill="#2b2429" letter-spacing="0">lovebook</text>
  <!-- Plum underline dot row -->
  <g transform="translate(330, 328)">
    <circle cx="0" cy="0" r="4" fill="#6e455e" opacity="0.5"/>
    <circle cx="12" cy="0" r="4" fill="#6e455e" opacity="0.5"/>
    <circle cx="24" cy="0" r="4" fill="#6e455e" opacity="0.5"/>
    <circle cx="36" cy="0" r="4" fill="#6e455e" opacity="0.5"/>
    <circle cx="48" cy="0" r="4" fill="#6e455e" opacity="0.5"/>
    <circle cx="60" cy="0" r="4" fill="#6e455e" opacity="0.5"/>
    <circle cx="72" cy="0" r="4" fill="#6e455e" opacity="0.5"/>
    <circle cx="84" cy="0" r="4" fill="#6e455e" opacity="0.5"/>
    <circle cx="96" cy="0" r="4" fill="#6e455e" opacity="0.5"/>
    <circle cx="108" cy="0" r="4" fill="#6e455e" opacity="0.5"/>
    <circle cx="120" cy="0" r="4" fill="#6e455e" opacity="0.5"/>
    <circle cx="132" cy="0" r="4" fill="#6e455e" opacity="0.5"/>
    <circle cx="144" cy="0" r="4" fill="#6e455e" opacity="0.5"/>
    <circle cx="156" cy="0" r="4" fill="#6e455e" opacity="0.5"/>
    <circle cx="168" cy="0" r="4" fill="#6e455e" opacity="0.5"/>
    <circle cx="180" cy="0" r="4" fill="#6e455e" opacity="0.5"/>
  </g>
</svg>
